<svg width="142" height="270" viewBox="0 0 142 270" fill="none" xmlns="http://www.w3.org/2000/svg">
<path d="M70.6374 270.001C27.3463 270.001 7.89062 185.57 0.331186 137.662C-2.3429 120.702 11.5161 105.454 29.6347 105.454H111.64C129.759 105.454 143.618 120.702 140.944 137.662C133.393 185.562 113.937 270.001 70.6374 270.001Z" fill="#C6F432"/>
<path d="M105.906 192.425H35.3559C25.417 192.425 17.3517 184.368 17.3517 174.44C16.7 160.078 16.2112 141.931 35.3559 141.198H105.906C115.845 141.198 123.91 149.255 123.91 159.183C124.562 173.545 125.051 191.692 105.906 192.425Z" fill="black"/>
<path d="M105.73 141H35.2697C20.7193 141 15.6747 154.714 17.2884 167C17.2884 157.235 25.3434 149.311 35.2697 149.311H105.73C115.657 149.311 123.712 157.235 123.712 167C125.325 154.714 120.281 141 105.73 141Z" fill="#656565"/>
<path style="mix-blend-mode:multiply" d="M130.116 116.447C131.462 139.888 7.64841 139.888 9.01117 116.447C7.66555 93.0063 131.479 93.0148 130.116 116.447Z" fill="url(#paint0_radial_1_114)"/>
<path d="M133.367 49.0911C133.221 114.55 8.04482 114.542 7.91626 49.0911C8.06196 -16.368 133.238 -16.3594 133.367 49.0911Z" fill="#C6F432"/>
<path d="M39.5253 20.9504C28.1862 20.9504 18.9983 30.128 18.9983 41.4545C23.1723 101.751 118.137 101.683 122.276 41.4545C122.276 30.128 113.088 20.9504 101.749 20.9504H39.5253Z" fill="black"/>
<path d="M99.2894 57.6695H41.9937C33.8515 57.6695 27.252 51.0774 27.252 42.9442C27.252 34.811 33.8515 28.2189 41.9937 28.2189H99.2894C107.432 28.2189 114.031 34.811 114.031 42.9442C114.031 51.0774 107.432 57.6695 99.2894 57.6695Z" fill="#C6F432"/>
<g style="mix-blend-mode:multiply">
<path d="M75.394 71.5729C70.9372 71.2219 60.3866 73.5763 60.5409 66.2307C60.5409 65.1777 61.3894 64.3301 62.4436 64.3301H78.8395C79.8937 64.3301 80.7422 65.1777 80.7422 66.2307C80.7422 69.1844 78.351 71.5729 75.394 71.5729Z" fill="#C6F432"/>
</g>
<path d="M54.7727 48.2264H44.1278C40.8195 48.2864 41.5737 43.9287 41.5223 41.8226C41.5223 40.3844 42.6879 39.22 44.1278 39.22H54.7727C58.081 39.1601 57.3268 43.5178 57.3782 45.6238C57.3782 47.0621 56.2126 48.2264 54.7727 48.2264Z" fill="#010101"/>
<path d="M97.1467 48.2264H86.5104C83.202 48.2864 83.9563 43.9287 83.9048 41.8226C83.9048 40.3844 85.0705 39.22 86.5104 39.22H97.1467C100.455 39.1601 99.7008 43.5178 99.7522 45.6238C99.7522 47.0621 98.5866 48.2264 97.1467 48.2264Z" fill="#010101"/>
<defs>
<radialGradient id="paint0_radial_1_114" cx="0" cy="0" r="1" gradientUnits="userSpaceOnUse" gradientTransform="translate(69.0646 115.916) scale(56.4535 17.2728)">
<stop stop-color="#748FD3"/>
<stop offset="0.36" stop-color="#A3B5E1"/>
<stop offset="1" stop-color="white"/>
</radialGradient>
</defs>
</svg>
